PathFileType	4	(X/Y/Z)	C:\Users\IEUser\Desktop\02761_POST\experimental_data\task.trc
DataRate	CameraRate	NumFrames	NumMarkers	Units	OrigDataRate	OrigDataStartFrame	OrigNumFrames
100.000000	100.000000	4	51	mm	100.000000	315	361
Frame#	Time	C7			CLAV			LANK			LASI			LBHD			LELB			LFHD			LFIN			LFMH			LHEE			LKNE			LMED			LMET			LMIF			LPSI			LSHO			LTAD			LTHAP			LTHI			LTIAD			LTIB			LTOE			LTTU			LWRA			LWRB			RANK			RASI			RBAK			RBHD			RELB			RFHD			RFIN			RFMH			RHEE			RKNE			RMED			RMET			RMIF			RPSI			RSHO			RTAD			RTHAP			RTHI			RTIAD			RTIB			RTOE			RTTU			RWRA			RWRB			STRN			T10			
		X1	Y1	Z1	X2	Y2	Z2	X3	Y3	Z3	X4	Y4	Z4	X5	Y5	Z5	X6	Y6	Z6	X7	Y7	Z7	X8	Y8	Z8	X9	Y9	Z9	X10	Y10	Z10	X11	Y11	Z11	X12	Y12	Z12	X13	Y13	Z13	X14	Y14	Z14	X15	Y15	Z15	X16	Y16	Z16	X17	Y17	Z17	X18	Y18	Z18	X19	Y19	Z19	X20	Y20	Z20	X21	Y21	Z21	X22	Y22	Z22	X23	Y23	Z23	X24	Y24	Z24	X25	Y25	Z25	X26	Y26	Z26	X27	Y27	Z27	X28	Y28	Z28	X29	Y29	Z29	X30	Y30	Z30	X31	Y31	Z31	X32	Y32	Z32	X33	Y33	Z33	X34	Y34	Z34	X35	Y35	Z35	X36	Y36	Z36	X37	Y37	Z37	X38	Y38	Z38	X39	Y39	Z39	X40	Y40	Z40	X41	Y41	Z41	X42	Y42	Z42	X43	Y43	Z43	X44	Y44	Z44	X45	Y45	Z45	X46	Y46	Z46	X47	Y47	Z47	X48	Y48	Z48	X49	Y49	Z49	X50	Y50	Z50	X51	Y51	Z51	

316	3.15	1115.677001953125	1323.906127929688	-292.7248840332032	1203.4921875	1226.623168945313	-295.0915832519532	1292.339965820313	61.99532699584962	-410.978240966797	1163.176147460938	862.6018066406252	-407.0867004394532	1198.474731445313	1460.2216796875	-339.9696350097657	1019.751953125	1022.372863769531	-530.3853149414064	1314.451171875	1412.851196289063	-328.0397338867188	1046.177001953125	744.4546508789064	-629.9688720703126	1419.021850585938	71.68536376953126	-359.5196228027344	1251.919311523438	32.66156387329102	-364.5581970214844	1241.473266601563	470.4062805175782	-431.2719726562501	1312.895141601563	79.87413024902345	-335.5520324707032	1394.086181640625	50.1538543701172	-432.4737548828126	1360.936889648438	92.99405670166017	-391.3309020996095	1009.611022949219	907.647888183594	-361.9200744628907	1122.121459960938	1278.51806640625	-436.0442810058595	1264.436889648438	622.0070800781251	-369.9681396484376	1240.388549804688	686.2378540039064	-371.0848083496094	1203.979614257813	584.1715698242189	-491.138397216797	1320.32470703125	184.2003784179688	-393.7732238769532	1268.474853515625	270.9314880371094	-476.9608764648439	1405.930053710938	72.26881408691408	-401.195526123047	1298.5009765625	400.5520629882814	-392.3706665039064	1070.9609375	783.2597656250002	-583.6350097656251	1008.947387695313	789.3902587890627	-606.1691284179689	882.3836669921877	78.95019531250001	-260.7509765625001	1142.414672851563	852.1920166015627	-197.5777282714844	1078.224609375	1175.924560546875	-178.6375122070313	1171.474731445313	1445.379028320313	-217.4083099365235	1204.17236328125	991.3425292968752	-103.6299438476563	1317.521118164063	1388.762939453125	-218.0505981445313	1339.143920898438	739.3433227539064	-143.0406341552735	1008.917907714844	33.1921501159668	-308.9030761718751	841.5842895507815	83.12921142578126	-309.9643249511719	1077.361572265625	435.2439270019532	-231.8451690673829	916.3126220703127	86.09343719482423	-333.5639343261719	971.1225585937502	26.79125022888184	-231.3316040039063	962.9661254882815	76.60683441162111	-280.6370544433594	1013.707885742188	912.6958618164065	-269.7095031738282	1149.558471679688	1271.104248046875	-148.2721252441407	1146.529296875	553.8172607421876	-293.6549072265626	1161.94287109375	677.0797729492189	-261.4810180664063	1094.874145507813	554.9180908203126	-164.5806884765625	1011.235534667969	231.7576293945313	-291.8342590332032	967.8957519531252	252.145004272461	-196.9059143066407	997.752624511719	38.65164947509766	-265.2795410156251	1078.616821289063	349.4633178710938	-287.4474182128907	1305.693725585938	793.7460937500002	-178.7249755859375	1305.061401367188	784.6070556640627	-117.3598022460938	1216.3359375	1040.547119140625	-306.1240234375001	1038.460327148438	1006.479248046875	-307.6498718261719	
317	3.16	1126.707397460938	1322.7490234375	-294.0787658691407	1214.420776367188	1225.21826171875	-295.9580383300782	1319.313598632813	61.88655471801759	-409.1530761718751	1174.827270507813	861.8516235351565	-406.2341308593751	1209.580078125	1459.1708984375	-340.4942932128907	1028.897216796875	1022.7802734375	-531.1226196289064	1325.693725585938	1412.277709960938	-328.4081115722657	1050.746826171875	745.1105957031251	-632.3989868164064	1444.50830078125	76.09533691406251	-354.1578063964844	1278.5380859375	31.21527481079102	-363.4683227539063	1250.553588867188	468.2025146484376	-430.9561462402345	1337.185791015625	80.65543365478517	-332.9617614746094	1422.15576171875	53.25827407836915	-427.6171875000001	1386.431396484375	95.35543060302736	-387.364471435547	1020.490356445313	906.6912231445315	-362.9576110839844	1133.875732421875	1277.7265625	-437.102020263672	1272.752197265625	618.0590820312501	-368.3794555664063	1250.201416015625	682.6843872070314	-368.9069213867188	1212.36279296875	581.9818115234376	-490.9488830566407	1341.738647460938	185.7104644775391	-390.7836914062501	1287.668579101563	270.1787719726563	-475.4338378906251	1432.529663085938	75.97808837890626	-396.0797729492189	1309.512084960938	400.395965576172	-390.5130920410157	1076.655517578125	783.1080322265627	-586.1290283203126	1014.455749511719	790.2076416015627	-607.5071411132814	883.0662841796877	80.29821777343751	-260.6620483398438	1152.499389648438	850.993103027344	-196.5464477539063	1087.21826171875	1175.561889648438	-180.0789031982422	1182.1962890625	1443.599731445313	-218.1223449707032	1215.259887695313	990.7706298828127	-103.8756256103516	1328.640502929688	1387.568725585938	-218.4738006591797	1351.911499023438	739.6677856445314	-143.1476593017578	1009.027404785156	33.29585266113282	-308.8286743164063	842.4149169921877	85.0591278076172	-309.9606628417969	1082.765625	434.2368164062501	-231.9557342529297	917.0474243164065	87.06552886962892	-333.4093627929688	971.1090087890627	26.92294883728028	-231.3487091064454	963.6270751953127	77.14450836181642	-280.4828796386719	1024.196655273438	911.2886962890627	-270.7339782714844	1160.054931640625	1270.173217773438	-149.6082305908203	1154.381469726563	551.6919555664064	-292.9699707031251	1171.517578125	674.6459350585939	-260.3862915039063	1101.312133789063	553.8597412109376	-164.6546630859375	1013.825561523438	231.584945678711	-291.9091186523438	970.830993652344	252.5051422119141	-196.9280395507813	997.9902954101565	38.80310440063477	-265.0361938476563	1083.101196289063	348.5686950683594	-287.5160217285157	1318.618530273438	794.1875000000002	-178.7844390869141	1317.221435546875	784.4219360351565	-117.4593505859375	1226.721557617188	1039.05224609375	-305.9824829101563	1048.8623046875	1005.327819824219	-308.3357238769532	
318	3.17	1137.611572265625	1321.367309570313	-295.6374816894532	1225.29296875	1223.63427734375	-296.8990478515626	1343.113037109375	61.97693634033205	-407.1287536621095	1186.606323242188	860.8047485351565	-405.5022583007814	1220.549926757813	1457.926025390625	-341.1481628417969	1038.349731445313	1022.757263183594	-531.9883422851564	1336.8232421875	1411.548828125	-328.8759765625001	1055.918701171875	745.3563232421876	-634.6252441406251	1466.897216796875	79.61028289794923	-348.6137695312501	1302.069213867188	30.12062454223634	-362.2153320312501	1260.62744140625	466.031463623047	-430.4365539550782	1358.647705078125	81.2864227294922	-330.2364196777344	1447.082153320313	55.7410125732422	-422.5639038085939	1409.06787109375	97.27227020263675	-383.2243347167969	1031.525146484375	905.2256469726565	-363.8067016601563	1145.6787109375	1276.609130859375	-438.3359375000001	1281.585205078125	614.1145629882814	-366.7111816406251	1260.35986328125	679.0039672851564	-366.8385925292969	1221.6591796875	579.4700927734376	-490.6849975585939	1361.188354492188	186.9870910644532	-387.4890441894532	1306.813354492188	269.8654174804688	-473.5125732421876	1456.082885742188	78.98626708984376	-390.7701110839845	1320.762939453125	400.0089111328126	-388.1060791015626	1082.908203125	782.6265869140627	-588.4559936523439	1020.498962402344	790.537780761719	-608.7091674804689	883.7871093750002	81.7002639770508	-260.5586242675782	1162.999145507813	849.499450683594	-195.6596832275391	1095.509033203125	1175.004150390625	-181.853256225586	1192.694091796875	1441.636596679688	-219.0080566406251	1226.045288085938	990.0708007812502	-104.1671905517578	1339.558349609375	1386.1748046875	-218.9354095458985	1364.575805664063	739.9608154296876	-143.0653228759766	1009.183776855469	33.4067611694336	-308.7167358398438	843.3150024414065	87.13057708740236	-309.9325561523438	1088.424072265625	433.065643310547	-231.9415283203126	917.9158935546877	88.12700653076173	-333.2408142089844	971.116882324219	27.01996040344239	-231.3603210449219	964.3395996093752	77.7080535888672	-280.2931823730469	1034.981811523438	909.457214355469	-271.5334472656251	1170.276123046875	1269.097778320313	-151.0699005126953	1162.566772460938	549.2578125000001	-292.1644592285157	1181.506103515625	672.0188598632814	-259.4755554199219	1108.187255859375	552.5881347656251	-164.658203125	1016.473876953125	231.3802642822266	-291.9588317871094	973.958923339844	252.7728576660157	-196.8667602539063	998.2639160156252	38.93473052978516	-264.7756652832032	1087.783813476563	347.4608764648438	-287.4323120117188	1331.470458984375	794.5926513671877	-178.6663970947266	1329.214477539063	784.1790161132815	-117.4378280639649	1237.203002929688	1037.38525390625	-305.8890991210938	1059.447631835938	1003.807067871094	-308.9794616699219	
319	3.18	1148.38671875	1319.773681640625	-297.3782653808594	1236.109497070313	1221.899291992188	-297.9128723144532	1363.580810546875	61.91389465332033	-404.9304809570314	1198.521728515625	859.464050292969	-404.9680480957032	1231.374145507813	1456.504638671875	-341.9476318359376	1048.099609375	1022.278381347656	-532.9894409179689	1347.831909179688	1410.67236328125	-329.4693298339844	1061.732421875	745.1753540039064	-636.6694335937501	1486.175048828125	81.8284378051758	-343.1415100097657	1322.354248046875	29.11018562316895	-360.7545471191407	1271.844970703125	463.9784545898439	-429.6369628906251	1377.24365234375	81.43906402587892	-327.4221801757813	1468.645874023438	57.20518875122072	-417.5244750976564	1428.738891601563	98.36102294921878	-379.0657043457032	1042.85205078125	903.1706542968752	-364.4281311035157	1157.483764648438	1275.161865234375	-439.732879638672	1291.110717773438	610.5426025390626	-364.8672790527344	1270.981079101563	675.5821533203126	-364.9360351562501	1232.352783203125	576.8656616210939	-490.2346496582032	1378.601684570313	187.6798553466797	-384.0202026367189	1325.447509765625	269.6491394042969	-471.2386169433595	1476.465698242188	80.87644958496095	-385.5048217773439	1332.323120117188	399.3356018066407	-385.2585754394532	1089.75634765625	781.814636230469	-590.6389770507814	1027.071166992188	790.3259887695315	-609.7755737304689	884.5606079101565	83.20478820800783	-260.4479675292969	1173.936401367188	847.7453613281252	-194.9868774414063	1103.288208007813	1174.217529296875	-183.9126281738282	1202.965209960938	1439.5400390625	-220.0725555419922	1236.513305664063	989.2351074218752	-104.5038375854492	1350.218627929688	1384.60888671875	-219.4609527587891	1377.120483398438	740.2263793945314	-142.7876281738282	1009.387268066406	33.52989578247071	-308.5576782226563	844.3146972656252	89.39070129394533	-309.8634643554688	1094.371215820313	431.7744445800782	-231.7801513671876	918.9263916015627	89.3079071044922	-333.0350952148438	971.1378173828127	27.08951950073243	-231.3739624023438	965.1140136718752	78.30697631835939	-280.0398864746094	1046.09228515625	907.2058105468752	-272.1249694824219	1180.241333007813	1267.8828125	-152.636962890625	1171.049682617188	546.5667724609376	-291.2695617675782	1191.888427734375	669.2789916992189	-258.7499084472657	1115.62890625	551.1403198242189	-164.5693969726563	1019.232299804688	231.144027709961	-291.9118652343751	977.2718505859377	253.0191040039063	-196.7002410888672	998.5494384765627	39.04003524780274	-264.5029602050782	1092.697998046875	346.1565551757813	-287.1462097167969	1344.2265625	794.9591064453127	-178.3780059814453	1341.038940429688	783.8974609375002	-117.2966613769532	1247.8095703125	1035.569458007813	-305.8684692382813	1070.24755859375	1001.931518554688	-309.5949707031251	
